<svg xmlns="http://www.w3.org/2000/svg" xmlns:xlink="http://www.w3.org/1999/xlink" width="138.823" height="99.024" viewBox="0 0 138.823 99.024">
  <defs>
    <clipPath id="clip-path">
      <rect id="Rectangle_842" data-name="Rectangle 842" width="138.823" height="99.024" fill="#707070"/>
    </clipPath>
  </defs>
  <g id="Group_953" data-name="Group 953" transform="translate(0 0)">
    <g id="Group_942" data-name="Group 942" transform="translate(0 0.001)" clip-path="url(#clip-path)">
      <path id="Path_874" data-name="Path 874" d="M125.686,40.3H13.137C5.895,40.3,0,34.662,0,27.733V24.442a2.256,2.256,0,0,1,2.306-2.207H136.521a2.256,2.256,0,0,1,2.306,2.207v3.292c0,6.929-5.895,12.569-13.141,12.569M4.612,26.648v1.085a8.357,8.357,0,0,0,8.524,8.156h112.55a8.357,8.357,0,0,0,8.528-8.156V26.648Z" transform="translate(0 58.723)" fill="#707070"/>
      <path id="Path_875" data-name="Path 875" d="M130.362,85.373H3.233a2.255,2.255,0,0,1-2.3-2.2V4.413A4.519,4.519,0,0,1,5.54,0H128.056a4.523,4.523,0,0,1,4.612,4.413V83.17a2.256,2.256,0,0,1-2.306,2.2M5.54,80.964H128.056V4.417H5.54Z" transform="translate(2.612 -0.002)" fill="#707070"/>
      <path id="Path_876" data-name="Path 876" d="M111.528,69.332H8.043a4.523,4.523,0,0,1-4.612-4.413V6.967A4.523,4.523,0,0,1,8.043,2.554H111.528a4.523,4.523,0,0,1,4.612,4.413V64.919a4.523,4.523,0,0,1-4.612,4.413M8.043,64.919H111.528V6.963H8.043Z" transform="translate(9.626 6.744)" fill="#707070"/>
      <path id="Path_877" data-name="Path 877" d="M18.1,23.2A9.013,9.013,0,0,1,8.9,14.4a9.013,9.013,0,0,1,9.194-8.8,9.013,9.013,0,0,1,9.194,8.8A9.013,9.013,0,0,1,18.1,23.2m0-13.181A4.491,4.491,0,0,0,13.515,14.4,4.491,4.491,0,0,0,18.1,18.788,4.491,4.491,0,0,0,22.679,14.4,4.491,4.491,0,0,0,18.1,10.02" transform="translate(24.978 14.807)" fill="#707070"/>
      <path id="Path_878" data-name="Path 878" d="M39.044,37.63H9.083a2.256,2.256,0,0,1-2.306-2.207V17.061a5.637,5.637,0,0,1,3.737-5.214,1.819,1.819,0,0,1,.3-.091l6.032-1.351a2.36,2.36,0,0,1,2.443.921l4.768,6.827,4.772-6.827a2.354,2.354,0,0,1,2.439-.921l6.032,1.351a1.759,1.759,0,0,1,.308.091,5.637,5.637,0,0,1,3.737,5.214V35.424a2.256,2.256,0,0,1-2.306,2.207M11.389,33.217H36.738V17.061a1.184,1.184,0,0,0-.677-1.056l-4.281-.958-5.8,8.3a2.459,2.459,0,0,1-3.832,0l-5.8-8.3-4.281.958a1.18,1.18,0,0,0-.677,1.056Z" transform="translate(19.013 27.325)" fill="#707070"/>
      <path id="Path_879" data-name="Path 879" d="M13.019,30.685a2.256,2.256,0,0,1-2.306-2.207v-13.3a2.309,2.309,0,0,1,4.612,0v13.3a2.256,2.256,0,0,1-2.306,2.207" transform="translate(30.056 34.267)" fill="#707070"/>
      <path id="Path_880" data-name="Path 880" d="M20.352,40.636a2.356,2.356,0,0,1-.788-.135,2.213,2.213,0,0,1-1.518-2.072v-25a8.252,8.252,0,0,1,8.418-8.054H56.6a8.252,8.252,0,0,1,8.418,8.054v7.661A8.25,8.25,0,0,1,56.6,29.141H34.749a7.119,7.119,0,0,0-5.366,2.4l-7.265,8.309a2.35,2.35,0,0,1-1.766.79M26.464,9.785a3.733,3.733,0,0,0-3.809,3.641v18.93l3.193-3.648a11.791,11.791,0,0,1,8.9-3.98H56.6a3.731,3.731,0,0,0,3.809-3.641V13.426A3.731,3.731,0,0,0,56.6,9.785Z" transform="translate(50.629 14.186)" fill="#707070"/>
      <path id="Path_881" data-name="Path 881" d="M26.375,10.554a2.645,2.645,0,0,1-5.286,0,2.645,2.645,0,0,1,5.286,0" transform="translate(59.167 21.188)" fill="#707070"/>
      <path id="Path_882" data-name="Path 882" d="M28.809,10.554a2.645,2.645,0,0,1-5.286,0,2.645,2.645,0,0,1,5.286,0" transform="translate(65.995 21.188)" fill="#707070"/>
      <path id="Path_883" data-name="Path 883" d="M31.242,10.554a2.645,2.645,0,0,1-5.286,0,2.645,2.645,0,0,1,5.286,0" transform="translate(72.821 21.188)" fill="#707070"/>
    </g>
  </g>
</svg>
