<svg id="Group_1009" data-name="Group 1009" xmlns="http://www.w3.org/2000/svg" xmlns:xlink="http://www.w3.org/1999/xlink" width="150.199" height="146.6" viewBox="0 0 150.199 146.6">
  <defs>
    <clipPath id="clip-path">
      <rect id="Rectangle_897" data-name="Rectangle 897" width="150.199" height="146.6" fill="#84b403"/>
    </clipPath>
  </defs>
  <g id="Group_1004" data-name="Group 1004" clip-path="url(#clip-path)">
    <path id="Path_1027" data-name="Path 1027" d="M467.776,420.693a2.276,2.276,0,0,1-2.276-2.276V410.68a2.276,2.276,0,1,1,4.551,0v7.738a2.276,2.276,0,0,1-2.276,2.276" transform="translate(-377.135 -330.878)" fill="#84b403"/>
    <path id="Path_1028" data-name="Path 1028" d="M304.045,420.693a2.276,2.276,0,0,1-2.276-2.276V410.68a2.276,2.276,0,1,1,4.551,0v7.738a2.276,2.276,0,0,1-2.276,2.276" transform="translate(-244.485 -330.878)" fill="#84b403"/>
    <path id="Path_1029" data-name="Path 1029" d="M344.131,263.345H277.412a2.276,2.276,0,0,1,0-4.552h66.719a24.425,24.425,0,0,0,0-48.849h-3.6a2.276,2.276,0,0,1-2.276-2.276v-4.6L325.824,215.3l12.43,12.232v-4.6a2.276,2.276,0,0,1,2.276-2.276h3.6a13.719,13.719,0,0,1,0,27.437H277.412a2.276,2.276,0,0,1,0-4.551h66.719a9.167,9.167,0,0,0,0-18.335h-1.325v7.761a2.276,2.276,0,0,1-3.872,1.622l-17.95-17.665a2.276,2.276,0,0,1,0-3.244l17.95-17.665a2.276,2.276,0,0,1,3.872,1.622v7.761h1.325a28.976,28.976,0,1,1,0,57.952" transform="translate(-222.908 -158.273)" fill="#84b403"/>
    <path id="Path_1030" data-name="Path 1030" d="M32.576,316.219a2.276,2.276,0,0,1-2.275-2.276v-7.761H28.976A29.009,29.009,0,0,1,0,277.206a30.38,30.38,0,0,1,7.963-20.4c4.938-5.451,11.269-8.577,17.372-8.577H56.2a2.276,2.276,0,1,1,0,4.551H25.335c-9.611,0-20.783,10.669-20.783,24.425a24.452,24.452,0,0,0,24.425,24.425h3.6a2.276,2.276,0,0,1,2.276,2.276v4.6l12.43-12.232-12.43-12.232v4.6a2.276,2.276,0,0,1-2.276,2.276h-3.6a13.719,13.719,0,0,1,0-27.437H43.452a2.276,2.276,0,1,1,0,4.551H28.976a9.167,9.167,0,0,0,0,18.335H30.3v-7.76a2.276,2.276,0,0,1,3.872-1.622l17.95,17.665a2.276,2.276,0,0,1,0,3.244l-17.95,17.665a2.277,2.277,0,0,1-1.6.654" transform="translate(0 -201.109)" fill="#84b403"/>
    <path id="Path_1031" data-name="Path 1031" d="M327.95,131.193A14.751,14.751,0,0,1,316.6,125.5a19.964,19.964,0,0,1-4.5-12.576c0-9.575,7.113-17.365,15.856-17.365s15.856,7.79,15.856,17.365a19.963,19.963,0,0,1-4.5,12.576,14.751,14.751,0,0,1-11.353,5.691m0-31.081c-6.233,0-11.3,5.748-11.3,12.814,0,7.306,5.283,13.716,11.3,13.716s11.3-6.409,11.3-13.716c0-7.065-5.071-12.814-11.3-12.814" transform="translate(-252.85 -77.421)" fill="#84b403"/>
    <path id="Path_1032" data-name="Path 1032" d="M297.194,318.206a2.276,2.276,0,0,1-2.239-1.884,24.593,24.593,0,0,0-24.216-20.316h-1.377a24.593,24.593,0,0,0-24.216,20.316,2.276,2.276,0,1,1-4.483-.784,29.144,29.144,0,0,1,28.7-24.083h1.377a29.144,29.144,0,0,1,28.7,24.083,2.277,2.277,0,0,1-2.244,2.668" transform="translate(-194.951 -236.128)" fill="#84b403"/>
    <path id="Path_1033" data-name="Path 1033" d="M75.506,159.638a2.276,2.276,0,0,1-1.609-3.885l1.743-1.743a2.276,2.276,0,0,1,3.218,3.218l-1.743,1.743a2.269,2.269,0,0,1-1.609.666" transform="translate(-59.329 -124.235)" fill="#84b403"/>
    <path id="Path_1034" data-name="Path 1034" d="M125.049,110.094a2.276,2.276,0,0,1-1.609-3.885l1.743-1.743a2.276,2.276,0,1,1,3.218,3.219l-1.743,1.743a2.268,2.268,0,0,1-1.609.666" transform="translate(-99.468 -84.095)" fill="#84b403"/>
    <path id="Path_1035" data-name="Path 1035" d="M126.792,159.638a2.269,2.269,0,0,1-1.609-.666l-1.743-1.743a2.276,2.276,0,0,1,3.218-3.218l1.743,1.743a2.276,2.276,0,0,1-1.609,3.885" transform="translate(-99.468 -124.235)" fill="#84b403"/>
    <path id="Path_1036" data-name="Path 1036" d="M77.249,110.094a2.268,2.268,0,0,1-1.609-.666L73.9,107.684a2.276,2.276,0,1,1,3.218-3.219l1.743,1.743a2.276,2.276,0,0,1-1.609,3.885" transform="translate(-59.329 -84.095)" fill="#84b403"/>
    <path id="Path_1037" data-name="Path 1037" d="M236.434,5.03a2.268,2.268,0,0,1-1.61-.667l-.479-.479A2.276,2.276,0,0,1,237.565.667l.479.479a2.276,2.276,0,0,1-1.61,3.885" transform="translate(-189.321 0)" fill="#84b403"/>
    <path id="Path_1038" data-name="Path 1038" d="M272.5,41.095a2.269,2.269,0,0,1-1.609-.666l-.479-.479a2.276,2.276,0,1,1,3.218-3.219l.479.479a2.276,2.276,0,0,1-1.609,3.885" transform="translate(-218.538 -29.219)" fill="#84b403"/>
    <path id="Path_1039" data-name="Path 1039" d="M235.955,41.094a2.276,2.276,0,0,1-1.609-3.885l.479-.479a2.276,2.276,0,0,1,3.218,3.218l-.479.479a2.268,2.268,0,0,1-1.609.666" transform="translate(-189.321 -29.218)" fill="#84b403"/>
    <path id="Path_1040" data-name="Path 1040" d="M272.018,5.031a2.276,2.276,0,0,1-1.609-3.885l.479-.479a2.276,2.276,0,0,1,3.218,3.218l-.479.479a2.269,2.269,0,0,1-1.609.666" transform="translate(-218.538 0)" fill="#84b403"/>
    <path id="Path_1041" data-name="Path 1041" d="M516.682,73.32a2.276,2.276,0,0,1-1.609-3.885l1.743-1.743a2.276,2.276,0,1,1,3.218,3.219l-1.743,1.743a2.268,2.268,0,0,1-1.609.666" transform="translate(-416.758 -54.303)" fill="#84b403"/>
    <path id="Path_1042" data-name="Path 1042" d="M566.226,23.777a2.276,2.276,0,0,1-1.609-3.885l1.743-1.743a2.276,2.276,0,1,1,3.218,3.219l-1.743,1.743a2.268,2.268,0,0,1-1.609.666" transform="translate(-456.897 -14.164)" fill="#84b403"/>
    <path id="Path_1043" data-name="Path 1043" d="M567.969,73.32a2.268,2.268,0,0,1-1.609-.666l-1.743-1.743a2.276,2.276,0,0,1,3.218-3.219l1.743,1.743a2.276,2.276,0,0,1-1.609,3.885" transform="translate(-456.897 -54.302)" fill="#84b403"/>
    <path id="Path_1044" data-name="Path 1044" d="M518.426,23.777a2.269,2.269,0,0,1-1.609-.666l-1.743-1.743a2.276,2.276,0,1,1,3.218-3.219l1.743,1.743a2.276,2.276,0,0,1-1.609,3.885" transform="translate(-416.759 -14.164)" fill="#84b403"/>
    <path id="Path_1045" data-name="Path 1045" d="M677.61,139.3a2.268,2.268,0,0,1-1.61-.667l-.479-.479a2.276,2.276,0,1,1,3.219-3.218l.479.479a2.276,2.276,0,0,1-1.609,3.885" transform="translate(-546.75 -108.782)" fill="#84b403"/>
    <path id="Path_1046" data-name="Path 1046" d="M713.674,175.365a2.269,2.269,0,0,1-1.609-.666l-.479-.479A2.276,2.276,0,1,1,714.8,171l.479.479a2.276,2.276,0,0,1-1.609,3.885" transform="translate(-575.967 -138)" fill="#84b403"/>
    <path id="Path_1047" data-name="Path 1047" d="M677.132,175.365a2.276,2.276,0,0,1-1.609-3.885L676,171a2.276,2.276,0,1,1,3.219,3.218l-.479.479a2.268,2.268,0,0,1-1.609.667" transform="translate(-546.75 -138)" fill="#84b403"/>
    <path id="Path_1048" data-name="Path 1048" d="M713.2,139.3a2.276,2.276,0,0,1-1.609-3.885l.479-.479a2.276,2.276,0,1,1,3.219,3.218l-.479.479a2.268,2.268,0,0,1-1.609.667" transform="translate(-575.967 -108.783)" fill="#84b403"/>
    <path id="Path_1049" data-name="Path 1049" d="M706.535,611.254a2.276,2.276,0,0,1-1.609-3.885l1.743-1.743a2.276,2.276,0,0,1,3.218,3.218l-1.743,1.743a2.269,2.269,0,0,1-1.609.667" transform="translate(-570.572 -490.121)" fill="#84b403"/>
    <path id="Path_1050" data-name="Path 1050" d="M656.991,660.8a2.276,2.276,0,0,1-1.609-3.885l1.743-1.743a2.276,2.276,0,1,1,3.218,3.219l-1.743,1.743a2.268,2.268,0,0,1-1.609.667" transform="translate(-530.432 -530.26)" fill="#84b403"/>
    <path id="Path_1051" data-name="Path 1051" d="M658.734,611.254a2.269,2.269,0,0,1-1.609-.667l-1.743-1.743a2.276,2.276,0,0,1,3.218-3.219l1.743,1.743a2.276,2.276,0,0,1-1.609,3.885" transform="translate(-530.432 -490.121)" fill="#84b403"/>
    <path id="Path_1052" data-name="Path 1052" d="M708.277,660.8a2.268,2.268,0,0,1-1.609-.667l-1.743-1.743a2.276,2.276,0,0,1,3.218-3.218l1.743,1.743a2.276,2.276,0,0,1-1.609,3.885" transform="translate(-570.571 -530.261)" fill="#84b403"/>
    <path id="Path_1053" data-name="Path 1053" d="M534.043,750.813a2.269,2.269,0,0,1-1.609-.667l-.479-.479a2.276,2.276,0,0,1,3.218-3.219l.479.479a2.276,2.276,0,0,1-1.609,3.885" transform="translate(-430.435 -604.212)" fill="#84b403"/>
    <path id="Path_1054" data-name="Path 1054" d="M497.98,714.75a2.269,2.269,0,0,1-1.609-.667l-.479-.479a2.276,2.276,0,1,1,3.218-3.219l.479.479a2.276,2.276,0,0,1-1.609,3.885" transform="translate(-401.218 -574.996)" fill="#84b403"/>
    <path id="Path_1055" data-name="Path 1055" d="M533.565,714.75a2.276,2.276,0,0,1-1.609-3.885l.479-.479a2.276,2.276,0,0,1,3.219,3.219l-.479.479a2.268,2.268,0,0,1-1.609.666" transform="translate(-430.436 -574.995)" fill="#84b403"/>
    <path id="Path_1056" data-name="Path 1056" d="M497.5,750.813a2.276,2.276,0,0,1-1.609-3.885l.479-.479a2.276,2.276,0,1,1,3.218,3.219l-.479.479a2.269,2.269,0,0,1-1.609.667" transform="translate(-401.218 -604.213)" fill="#84b403"/>
    <path id="Path_1057" data-name="Path 1057" d="M342.084,620.845a2.276,2.276,0,0,1-1.609-3.885l1.743-1.743a2.276,2.276,0,1,1,3.218,3.219l-1.743,1.743a2.268,2.268,0,0,1-1.609.666" transform="translate(-275.303 -497.891)" fill="#84b403"/>
    <path id="Path_1058" data-name="Path 1058" d="M292.54,670.389a2.276,2.276,0,0,1-1.609-3.885l1.743-1.743a2.276,2.276,0,1,1,3.218,3.219l-1.743,1.743a2.268,2.268,0,0,1-1.609.667" transform="translate(-235.164 -538.031)" fill="#84b403"/>
    <path id="Path_1059" data-name="Path 1059" d="M294.283,620.845a2.268,2.268,0,0,1-1.609-.667l-1.743-1.743a2.276,2.276,0,1,1,3.218-3.218l1.743,1.743a2.276,2.276,0,0,1-1.609,3.885" transform="translate(-235.164 -497.892)" fill="#84b403"/>
    <path id="Path_1060" data-name="Path 1060" d="M343.827,670.389a2.268,2.268,0,0,1-1.609-.667l-1.743-1.743a2.276,2.276,0,0,1,3.218-3.219l1.743,1.743a2.276,2.276,0,0,1-1.609,3.885" transform="translate(-275.303 -538.031)" fill="#84b403"/>
    <path id="Path_1061" data-name="Path 1061" d="M140.821,693.268a2.269,2.269,0,0,1-1.609-.667l-.479-.479a2.276,2.276,0,1,1,3.218-3.219l.479.479a2.276,2.276,0,0,1-1.609,3.885" transform="translate(-111.858 -557.592)" fill="#84b403"/>
    <path id="Path_1062" data-name="Path 1062" d="M104.757,657.205a2.269,2.269,0,0,1-1.609-.666l-.479-.479a2.276,2.276,0,1,1,3.218-3.219l.479.479a2.276,2.276,0,0,1-1.609,3.885" transform="translate(-82.64 -528.375)" fill="#84b403"/>
    <path id="Path_1063" data-name="Path 1063" d="M140.342,657.2a2.276,2.276,0,0,1-1.609-3.885l.479-.479a2.276,2.276,0,1,1,3.218,3.219l-.479.479a2.269,2.269,0,0,1-1.609.667" transform="translate(-111.858 -528.374)" fill="#84b403"/>
    <path id="Path_1064" data-name="Path 1064" d="M104.278,693.268a2.276,2.276,0,0,1-1.609-3.885l.479-.479a2.276,2.276,0,1,1,3.218,3.219l-.479.479a2.269,2.269,0,0,1-1.609.667" transform="translate(-82.64 -557.591)" fill="#84b403"/>
  </g>
</svg>
