<svg xmlns="http://www.w3.org/2000/svg" xmlns:xlink="http://www.w3.org/1999/xlink" width="781" height="781" viewBox="0 0 781 781">
  <defs>
    <clipPath id="clip-path">
      <rect id="Rectangle_896" data-name="Rectangle 896" width="781" height="781" fill="none"/>
    </clipPath>
    <clipPath id="clip-path-2">
      <rect id="Rectangle_841" data-name="Rectangle 841" width="162.561" height="111.791" fill="#fff"/>
    </clipPath>
    <clipPath id="clip-path-3">
      <rect id="Rectangle_842" data-name="Rectangle 842" width="138.823" height="99.024" fill="#fff"/>
    </clipPath>
    <clipPath id="clip-path-4">
      <rect id="Rectangle_843" data-name="Rectangle 843" width="105.09" height="125.51" fill="#fff"/>
    </clipPath>
    <clipPath id="clip-path-5">
      <rect id="Rectangle_897" data-name="Rectangle 897" width="150.199" height="146.6" fill="none"/>
    </clipPath>
  </defs>
  <g id="Group_1010" data-name="Group 1010" transform="translate(-570 -2996)">
    <g id="Group_1003" data-name="Group 1003" transform="translate(570 2996)">
      <g id="Group_1002" data-name="Group 1002" clip-path="url(#clip-path)">
        <path id="Path_1023" data-name="Path 1023" d="M91.263,313.2,195.3,386.154c2.179-100.815,81.738-184.427,183.432-190.545L451.273,92.158,370.924.494A390.136,390.136,0,0,0,.012,393.187Z" fill="#999"/>
        <path id="Path_1024" data-name="Path 1024" d="M467.8,91.263,394.846,195.3c100.815,2.179,184.427,81.737,190.545,183.432l103.451,72.543,91.664-80.349A390.136,390.136,0,0,0,387.813.012Z" fill="#4e0003"/>
        <path id="Path_1025" data-name="Path 1025" d="M313.2,689.737,386.153,585.7c-100.815-2.179-184.426-81.738-190.545-183.432L92.157,329.727.493,410.076A390.137,390.137,0,0,0,393.187,780.988Z" fill="#84b403"/>
        <path id="Path_1026" data-name="Path 1026" d="M689.737,467.8,585.7,394.847c-2.179,100.814-81.738,184.426-183.432,190.545l-72.543,103.45,80.349,91.665A390.137,390.137,0,0,0,780.988,387.813Z" fill="#707070"/>
      </g>
    </g>
    <g id="Group_941" data-name="Group 941" transform="translate(1128.5 3153.649)">
      <g id="Group_940" data-name="Group 940" transform="translate(0 0)" clip-path="url(#clip-path-2)">
        <path id="Path_854" data-name="Path 854" d="M7.159,46.285a2.6,2.6,0,0,1-2.6-2.6V22.522a2.6,2.6,0,0,1,5.2,0V43.687a2.6,2.6,0,0,1-2.6,2.6" transform="translate(14.993 65.505)" fill="#fff"/>
        <path id="Path_855" data-name="Path 855" d="M15.208,46.285a2.6,2.6,0,0,1-2.6-2.6V22.522a2.6,2.6,0,0,1,5.2,0V43.687a2.6,2.6,0,0,1-2.6,2.6" transform="translate(41.458 65.505)" fill="#fff"/>
        <path id="Path_856" data-name="Path 856" d="M58.571,59.947H4.929a2.6,2.6,0,0,1-2.6-2.6l.017-28.1c0-.086,0-.18.013-.27A13.014,13.014,0,0,1,13.114,17.548L23.478,15.8a2.6,2.6,0,1,1,.862,5.124L13.976,22.672A7.811,7.811,0,0,0,7.54,29.4L7.527,54.75H55.972L55.942,29.4A7.816,7.816,0,0,0,49.5,22.672l-10.36-1.745A2.6,2.6,0,0,1,40,15.8l10.364,1.745A13.028,13.028,0,0,1,61.122,28.98q.013.135.013.27l.034,28.1a2.6,2.6,0,0,1-2.6,2.6" transform="translate(7.661 51.843)" fill="#fff"/>
        <path id="Path_857" data-name="Path 857" d="M25.737,46.285a2.6,2.6,0,0,1-2.6-2.6V22.522a2.6,2.6,0,1,1,5.2,0V43.687a2.6,2.6,0,0,1-2.6,2.6" transform="translate(76.077 65.505)" fill="#fff"/>
        <path id="Path_858" data-name="Path 858" d="M33.786,46.285a2.6,2.6,0,0,1-2.6-2.6V22.522a2.6,2.6,0,1,1,5.2,0V43.687a2.6,2.6,0,0,1-2.6,2.6" transform="translate(102.542 65.505)" fill="#fff"/>
        <path id="Path_859" data-name="Path 859" d="M77.149,59.947H23.5a2.6,2.6,0,0,1-2.594-2.6l.017-28.1q0-.135.013-.27A13.028,13.028,0,0,1,31.692,17.548L42.056,15.8a2.6,2.6,0,1,1,.862,5.124L32.554,22.672A7.816,7.816,0,0,0,26.118,29.4l-.013,25.35H74.55L74.52,29.4a7.816,7.816,0,0,0-6.441-6.728L57.72,20.927a2.6,2.6,0,0,1,.862-5.124l10.364,1.745A13.018,13.018,0,0,1,79.7,28.98q.013.135.013.27l.034,28.1a2.6,2.6,0,0,1-2.6,2.6" transform="translate(68.745 51.843)" fill="#fff"/>
        <path id="Path_860" data-name="Path 860" d="M16.938,29.612a2.627,2.627,0,0,1-1.955-.883L7.4,20.079a2.6,2.6,0,1,1,3.906-3.422L17,23.141l6.123-6.548a2.6,2.6,0,1,1,3.795,3.55l-8.079,8.645a2.6,2.6,0,0,1-1.9.823" transform="translate(22.216 51.842)" fill="#fff"/>
        <path id="Path_861" data-name="Path 861" d="M35.772,28.6a2.585,2.585,0,0,1-1.814-.738l-7.838-7.633A2.6,2.6,0,0,1,29.747,16.5l6.02,5.87,6.016-5.866a2.6,2.6,0,0,1,3.628,3.718l-7.826,7.637a2.585,2.585,0,0,1-1.814.738" transform="translate(83.301 51.842)" fill="#fff"/>
        <path id="Path_862" data-name="Path 862" d="M159.967,30.056H2.6a2.6,2.6,0,1,1,0-5.2H159.967a2.6,2.6,0,0,1,0,5.2" transform="translate(0 81.735)" fill="#fff"/>
        <path id="Path_863" data-name="Path 863" d="M20.657,37.764A14.956,14.956,0,1,1,35.614,22.807,14.975,14.975,0,0,1,20.657,37.764m0-24.716a9.759,9.759,0,1,0,9.759,9.759,9.77,9.77,0,0,0-9.759-9.759" transform="translate(18.745 25.813)" fill="#fff"/>
        <path id="Path_864" data-name="Path 864" d="M39.235,37.764A14.956,14.956,0,1,1,54.192,22.807,14.975,14.975,0,0,1,39.235,37.764m0-24.716a9.759,9.759,0,1,0,9.759,9.759,9.77,9.77,0,0,0-9.759-9.759" transform="translate(79.828 25.813)" fill="#fff"/>
        <path id="Path_865" data-name="Path 865" d="M19.064,32.287a2.557,2.557,0,0,1-1.141-.266,2.591,2.591,0,0,1-1.458-2.333V23.046a6.778,6.778,0,0,1-4.382-6.329V9.466A6.821,6.821,0,0,1,18.9,2.657h27.97a6.818,6.818,0,0,1,6.809,6.809v7.251a6.814,6.814,0,0,1-6.809,6.8H31.22L20.659,31.738a2.579,2.579,0,0,1-1.6.549M18.9,7.854A1.617,1.617,0,0,0,17.28,9.466v7.251A1.617,1.617,0,0,0,18.9,18.329a2.745,2.745,0,0,1,2.766,2.6v3.448l7.071-5.5a2.587,2.587,0,0,1,1.6-.549H46.867a1.617,1.617,0,0,0,1.617-1.612V9.466a1.617,1.617,0,0,0-1.617-1.612Z" transform="translate(39.728 8.735)" fill="#fff"/>
        <path id="Path_866" data-name="Path 866" d="M19.131,6.8A2.105,2.105,0,1,1,17.025,4.7,2.106,2.106,0,0,1,19.131,6.8" transform="translate(49.056 15.446)" fill="#fff"/>
        <path id="Path_867" data-name="Path 867" d="M20.654,6.8A2.105,2.105,0,1,1,18.548,4.7,2.106,2.106,0,0,1,20.654,6.8" transform="translate(54.064 15.446)" fill="#fff"/>
        <path id="Path_868" data-name="Path 868" d="M22.18,6.8A2.108,2.108,0,1,1,20.07,4.7,2.11,2.11,0,0,1,22.18,6.8" transform="translate(59.068 15.446)" fill="#fff"/>
        <path id="Path_869" data-name="Path 869" d="M57.529,29.634a2.615,2.615,0,0,1-1.6-.549L45.377,20.87H29.726a6.815,6.815,0,0,1-6.809-6.809V6.814A6.819,6.819,0,0,1,29.726,0H57.7A6.822,6.822,0,0,1,64.51,6.814V14.06a6.816,6.816,0,0,1-4.382,6.359v6.616a2.6,2.6,0,0,1-1.454,2.333,2.634,2.634,0,0,1-1.145.266M29.726,5.2a1.614,1.614,0,0,0-1.612,1.617V14.06a1.613,1.613,0,0,0,1.612,1.612H46.265a2.587,2.587,0,0,1,1.6.549l7.071,5.5V18.271a2.6,2.6,0,0,1,2.6-2.6,1.661,1.661,0,0,0,1.784-1.612V6.814A1.618,1.618,0,0,0,57.7,5.2Z" transform="translate(75.35 -0.001)" fill="#fff"/>
        <path id="Path_870" data-name="Path 870" d="M28.8,4.146a2.1,2.1,0,1,0,2.1-2.105,2.1,2.1,0,0,0-2.1,2.105" transform="translate(94.69 6.71)" fill="#fff"/>
        <path id="Path_871" data-name="Path 871" d="M27.276,4.146a2.105,2.105,0,1,0,2.105-2.105,2.106,2.106,0,0,0-2.105,2.105" transform="translate(89.682 6.71)" fill="#fff"/>
        <path id="Path_872" data-name="Path 872" d="M25.753,4.146a2.105,2.105,0,1,0,2.105-2.105,2.106,2.106,0,0,0-2.105,2.105" transform="translate(84.675 6.71)" fill="#fff"/>
      </g>
    </g>
    <path id="Path_873" data-name="Path 873" d="M195.987,33.472a16.113,16.113,0,0,0,3.462-9.581,10.822,10.822,0,0,0-3.692-8.25,13.268,13.268,0,0,0-9.349-3.4q-9.931,0-16.506,10.157l-10.965-6.349a40.19,40.19,0,0,1,11.715-12Q177.059,0,187.156,0a26.68,26.68,0,0,1,17.717,6.407q7.622,6.405,7.618,17.484a23.623,23.623,0,0,1-3.229,11.891q-3.234,5.654-11.888,14.542L178.443,69.6H215.03V82.64H159.864V71.1L184.33,46.513a130.251,130.251,0,0,0,11.658-13.041" transform="translate(913.47 3090.86)" fill="#fff"/>
    <g id="Group_943" data-name="Group 943" transform="translate(756.177 3074.476)">
      <g id="Group_942" data-name="Group 942" transform="translate(0 0.001)" clip-path="url(#clip-path-3)">
        <path id="Path_874" data-name="Path 874" d="M125.686,40.3H13.137C5.895,40.3,0,34.662,0,27.733V24.442a2.256,2.256,0,0,1,2.306-2.207H136.521a2.256,2.256,0,0,1,2.306,2.207v3.292c0,6.929-5.895,12.569-13.141,12.569M4.612,26.648v1.085a8.357,8.357,0,0,0,8.524,8.156h112.55a8.357,8.357,0,0,0,8.528-8.156V26.648Z" transform="translate(0 58.723)" fill="#fff"/>
        <path id="Path_875" data-name="Path 875" d="M130.362,85.373H3.233a2.255,2.255,0,0,1-2.3-2.2V4.413A4.519,4.519,0,0,1,5.54,0H128.056a4.523,4.523,0,0,1,4.612,4.413V83.17a2.256,2.256,0,0,1-2.306,2.2M5.54,80.964H128.056V4.417H5.54Z" transform="translate(2.612 -0.002)" fill="#fff"/>
        <path id="Path_876" data-name="Path 876" d="M111.528,69.332H8.043a4.523,4.523,0,0,1-4.612-4.413V6.967A4.523,4.523,0,0,1,8.043,2.554H111.528a4.523,4.523,0,0,1,4.612,4.413V64.919a4.523,4.523,0,0,1-4.612,4.413M8.043,64.919H111.528V6.963H8.043Z" transform="translate(9.626 6.744)" fill="#fff"/>
        <path id="Path_877" data-name="Path 877" d="M18.1,23.2A9.013,9.013,0,0,1,8.9,14.4a9.013,9.013,0,0,1,9.194-8.8,9.013,9.013,0,0,1,9.194,8.8A9.013,9.013,0,0,1,18.1,23.2m0-13.181A4.491,4.491,0,0,0,13.515,14.4,4.491,4.491,0,0,0,18.1,18.788,4.491,4.491,0,0,0,22.679,14.4,4.491,4.491,0,0,0,18.1,10.02" transform="translate(24.978 14.807)" fill="#fff"/>
        <path id="Path_878" data-name="Path 878" d="M39.044,37.63H9.083a2.256,2.256,0,0,1-2.306-2.207V17.061a5.637,5.637,0,0,1,3.737-5.214,1.819,1.819,0,0,1,.3-.091l6.032-1.351a2.36,2.36,0,0,1,2.443.921l4.768,6.827,4.772-6.827a2.354,2.354,0,0,1,2.439-.921l6.032,1.351a1.759,1.759,0,0,1,.308.091,5.637,5.637,0,0,1,3.737,5.214V35.424a2.256,2.256,0,0,1-2.306,2.207M11.389,33.217H36.738V17.061a1.184,1.184,0,0,0-.677-1.056l-4.281-.958-5.8,8.3a2.459,2.459,0,0,1-3.832,0l-5.8-8.3-4.281.958a1.18,1.18,0,0,0-.677,1.056Z" transform="translate(19.013 27.325)" fill="#fff"/>
        <path id="Path_879" data-name="Path 879" d="M13.019,30.685a2.256,2.256,0,0,1-2.306-2.207v-13.3a2.309,2.309,0,0,1,4.612,0v13.3a2.256,2.256,0,0,1-2.306,2.207" transform="translate(30.056 34.267)" fill="#fff"/>
        <path id="Path_880" data-name="Path 880" d="M20.352,40.636a2.356,2.356,0,0,1-.788-.135,2.213,2.213,0,0,1-1.518-2.072v-25a8.252,8.252,0,0,1,8.418-8.054H56.6a8.252,8.252,0,0,1,8.418,8.054v7.661A8.25,8.25,0,0,1,56.6,29.141H34.749a7.119,7.119,0,0,0-5.366,2.4l-7.265,8.309a2.35,2.35,0,0,1-1.766.79M26.464,9.785a3.733,3.733,0,0,0-3.809,3.641v18.93l3.193-3.648a11.791,11.791,0,0,1,8.9-3.98H56.6a3.731,3.731,0,0,0,3.809-3.641V13.426A3.731,3.731,0,0,0,56.6,9.785Z" transform="translate(50.629 14.186)" fill="#fff"/>
        <path id="Path_881" data-name="Path 881" d="M26.375,10.554a2.645,2.645,0,0,1-5.286,0,2.645,2.645,0,0,1,5.286,0" transform="translate(59.167 21.188)" fill="#fff"/>
        <path id="Path_882" data-name="Path 882" d="M28.809,10.554a2.645,2.645,0,0,1-5.286,0,2.645,2.645,0,0,1,5.286,0" transform="translate(65.995 21.188)" fill="#fff"/>
        <path id="Path_883" data-name="Path 883" d="M31.242,10.554a2.645,2.645,0,0,1-5.286,0,2.645,2.645,0,0,1,5.286,0" transform="translate(72.821 21.188)" fill="#fff"/>
      </g>
    </g>
    <path id="Path_884" data-name="Path 884" d="M0,49.139H32.173v88.536H17.986V62.439H0Z" transform="translate(678.328 3111.732)" fill="#fff"/>
    <path id="Path_885" data-name="Path 885" d="M164.088,111.361V98.3h50.869v11.442l-21.019,23.51q11.94.373,18.656,7.525a24.107,24.107,0,0,1,6.713,17.1q0,13.313-9.017,20.9T187.1,186.359q-14.183,0-27.739-9.079l6.222-11.816q10.692,7.463,22.385,7.463,7.587,0,12.5-3.545t4.913-10.2a12.5,12.5,0,0,0-5.47-10.631q-5.477-3.984-15.174-3.983a31.778,31.778,0,0,0-9.331,1.368V134.744l20.152-23.382Z" transform="translate(892.642 3507.512)" fill="#fff"/>
    <g id="Group_945" data-name="Group 945" transform="translate(1136.91 3501.161)">
      <g id="Group_944" data-name="Group 944" transform="translate(0 0)" clip-path="url(#clip-path-4)">
        <path id="Path_886" data-name="Path 886" d="M18.831,23.178a9.431,9.431,0,1,1,9.428-9.431,9.441,9.441,0,0,1-9.428,9.431m0-14.571a5.14,5.14,0,1,0,5.14,5.14,5.147,5.147,0,0,0-5.14-5.14" transform="translate(23.885 10.965)" fill="#fff"/>
        <path id="Path_887" data-name="Path 887" d="M40.381,30.743A2.144,2.144,0,0,1,38.235,28.6V20.179a5.748,5.748,0,0,0-5.742-5.742H17.09a5.749,5.749,0,0,0-5.746,5.742V28.6a2.144,2.144,0,1,1-4.287,0V20.179A10.043,10.043,0,0,1,17.09,10.146h15.4A10.045,10.045,0,0,1,42.526,20.179V28.6a2.144,2.144,0,0,1-2.145,2.145" transform="translate(17.926 25.774)" fill="#fff"/>
        <path id="Path_888" data-name="Path 888" d="M11.708,21.207a2.144,2.144,0,0,1-2.145-2.145V16.045a2.145,2.145,0,0,1,4.291,0v3.016a2.144,2.144,0,0,1-2.145,2.145" transform="translate(24.292 35.31)" fill="#fff"/>
        <path id="Path_889" data-name="Path 889" d="M15.5,21.207a2.144,2.144,0,0,1-2.145-2.145V16.045a2.145,2.145,0,0,1,4.291,0v3.016A2.144,2.144,0,0,1,15.5,21.207" transform="translate(33.929 35.31)" fill="#fff"/>
        <path id="Path_890" data-name="Path 890" d="M62.412,21.316H5.578a2.145,2.145,0,1,1,0-4.291H62.412a2.145,2.145,0,0,1,0,4.291" transform="translate(8.72 43.248)" fill="#fff"/>
        <path id="Path_891" data-name="Path 891" d="M62.412,24.5H5.578a2.145,2.145,0,1,1,0-4.291H62.412a2.145,2.145,0,0,1,0,4.291" transform="translate(8.72 51.328)" fill="#fff"/>
        <path id="Path_892" data-name="Path 892" d="M68.707,27.678H5.578a2.145,2.145,0,0,1,0-4.291H68.707a2.145,2.145,0,0,1,0,4.291" transform="translate(8.72 59.409)" fill="#fff"/>
        <path id="Path_893" data-name="Path 893" d="M56.4,30.858H5.577a2.145,2.145,0,1,1,0-4.291H56.4a2.145,2.145,0,1,1,0,4.291" transform="translate(8.718 67.486)" fill="#fff"/>
        <path id="Path_894" data-name="Path 894" d="M55.268,34.039H5.578a2.145,2.145,0,1,1,0-4.291h49.69a2.145,2.145,0,0,1,0,4.291" transform="translate(8.72 75.567)" fill="#fff"/>
        <path id="Path_895" data-name="Path 895" d="M76.075,118.422H2.145A2.144,2.144,0,0,1,0,116.276V4.392A2.144,2.144,0,0,1,2.145,2.247H83.286a2.144,2.144,0,0,1,2.145,2.145V78.343a2.144,2.144,0,0,1-2.145,2.145,17.506,17.506,0,0,0-6.422,33.795,2.144,2.144,0,0,1-.789,4.138M4.291,114.131H68.609A21.81,21.81,0,0,1,81.145,76.3V6.534H4.291Z" transform="translate(0 5.709)" fill="#fff"/>
        <path id="Path_896" data-name="Path 896" d="M39.171,66.739a21.8,21.8,0,1,1,21.8-21.8,21.826,21.826,0,0,1-21.8,21.8m0-39.314A17.513,17.513,0,1,0,56.684,44.939,17.532,17.532,0,0,0,39.171,27.426" transform="translate(44.115 58.769)" fill="#fff"/>
        <path id="Path_897" data-name="Path 897" d="M29.991,45.491a2.147,2.147,0,0,1-1.731-.882L20.617,34.155a2.146,2.146,0,0,1,3.466-2.531l5.951,8.146,9.18-11.952a2.145,2.145,0,0,1,3.4,2.613L31.69,44.652a2.143,2.143,0,0,1-1.7.839" transform="translate(51.323 68.536)" fill="#fff"/>
        <path id="Path_898" data-name="Path 898" d="M85.815,88.363a2.131,2.131,0,0,1-.981-.237,17.331,17.331,0,0,0-7.973-1.933,2.144,2.144,0,0,1-2.145-2.145V12.242H4.674A2.144,2.144,0,0,1,2.529,10.1V2.145A2.144,2.144,0,0,1,4.674,0H85.815a2.144,2.144,0,0,1,2.145,2.145V86.218a2.146,2.146,0,0,1-2.145,2.145m-6.808-6.355A21.4,21.4,0,0,1,83.67,83V4.291H6.816V7.951H76.862A2.144,2.144,0,0,1,79.008,10.1Z" transform="translate(6.424 0.001)" fill="#fff"/>
      </g>
    </g>
    <text id="_4" data-name="4" transform="translate(673 3533)" fill="#fff" font-size="145" font-family="SegoeUI, Segoe UI"><tspan x="-39.082" y="0">4</tspan></text>
    <g id="Group_1005" data-name="Group 1005" transform="translate(691.9 3530.988)">
      <g id="Group_1004" data-name="Group 1004" clip-path="url(#clip-path-5)">
        <path id="Path_1027" data-name="Path 1027" d="M467.776,420.693a2.276,2.276,0,0,1-2.276-2.276V410.68a2.276,2.276,0,1,1,4.551,0v7.738a2.276,2.276,0,0,1-2.276,2.276" transform="translate(-377.135 -330.878)" fill="#fff"/>
        <path id="Path_1028" data-name="Path 1028" d="M304.045,420.693a2.276,2.276,0,0,1-2.276-2.276V410.68a2.276,2.276,0,1,1,4.551,0v7.738a2.276,2.276,0,0,1-2.276,2.276" transform="translate(-244.485 -330.878)" fill="#fff"/>
        <path id="Path_1029" data-name="Path 1029" d="M344.131,263.345H277.412a2.276,2.276,0,0,1,0-4.552h66.719a24.425,24.425,0,0,0,0-48.849h-3.6a2.276,2.276,0,0,1-2.276-2.276v-4.6L325.824,215.3l12.43,12.232v-4.6a2.276,2.276,0,0,1,2.276-2.276h3.6a13.719,13.719,0,0,1,0,27.437H277.412a2.276,2.276,0,0,1,0-4.551h66.719a9.167,9.167,0,0,0,0-18.335h-1.325v7.761a2.276,2.276,0,0,1-3.872,1.622l-17.95-17.665a2.276,2.276,0,0,1,0-3.244l17.95-17.665a2.276,2.276,0,0,1,3.872,1.622v7.761h1.325a28.976,28.976,0,1,1,0,57.952" transform="translate(-222.908 -158.273)" fill="#fff"/>
        <path id="Path_1030" data-name="Path 1030" d="M32.576,316.219a2.276,2.276,0,0,1-2.275-2.276v-7.761H28.976A29.009,29.009,0,0,1,0,277.206a30.38,30.38,0,0,1,7.963-20.4c4.938-5.451,11.269-8.577,17.372-8.577H56.2a2.276,2.276,0,1,1,0,4.551H25.335c-9.611,0-20.783,10.669-20.783,24.425a24.452,24.452,0,0,0,24.425,24.425h3.6a2.276,2.276,0,0,1,2.276,2.276v4.6l12.43-12.232-12.43-12.232v4.6a2.276,2.276,0,0,1-2.276,2.276h-3.6a13.719,13.719,0,0,1,0-27.437H43.452a2.276,2.276,0,1,1,0,4.551H28.976a9.167,9.167,0,0,0,0,18.335H30.3v-7.76a2.276,2.276,0,0,1,3.872-1.622l17.95,17.665a2.276,2.276,0,0,1,0,3.244l-17.95,17.665a2.277,2.277,0,0,1-1.6.654" transform="translate(0 -201.109)" fill="#fff"/>
        <path id="Path_1031" data-name="Path 1031" d="M327.95,131.193A14.751,14.751,0,0,1,316.6,125.5a19.964,19.964,0,0,1-4.5-12.576c0-9.575,7.113-17.365,15.856-17.365s15.856,7.79,15.856,17.365a19.963,19.963,0,0,1-4.5,12.576,14.751,14.751,0,0,1-11.353,5.691m0-31.081c-6.233,0-11.3,5.748-11.3,12.814,0,7.306,5.283,13.716,11.3,13.716s11.3-6.409,11.3-13.716c0-7.065-5.071-12.814-11.3-12.814" transform="translate(-252.85 -77.421)" fill="#fff"/>
        <path id="Path_1032" data-name="Path 1032" d="M297.194,318.206a2.276,2.276,0,0,1-2.239-1.884,24.593,24.593,0,0,0-24.216-20.316h-1.377a24.593,24.593,0,0,0-24.216,20.316,2.276,2.276,0,1,1-4.483-.784,29.144,29.144,0,0,1,28.7-24.083h1.377a29.144,29.144,0,0,1,28.7,24.083,2.277,2.277,0,0,1-2.244,2.668" transform="translate(-194.951 -236.128)" fill="#fff"/>
        <path id="Path_1033" data-name="Path 1033" d="M75.506,159.638a2.276,2.276,0,0,1-1.609-3.885l1.743-1.743a2.276,2.276,0,0,1,3.218,3.218l-1.743,1.743a2.269,2.269,0,0,1-1.609.666" transform="translate(-59.329 -124.235)" fill="#fff"/>
        <path id="Path_1034" data-name="Path 1034" d="M125.049,110.094a2.276,2.276,0,0,1-1.609-3.885l1.743-1.743a2.276,2.276,0,1,1,3.218,3.219l-1.743,1.743a2.268,2.268,0,0,1-1.609.666" transform="translate(-99.468 -84.095)" fill="#fff"/>
        <path id="Path_1035" data-name="Path 1035" d="M126.792,159.638a2.269,2.269,0,0,1-1.609-.666l-1.743-1.743a2.276,2.276,0,0,1,3.218-3.218l1.743,1.743a2.276,2.276,0,0,1-1.609,3.885" transform="translate(-99.468 -124.235)" fill="#fff"/>
        <path id="Path_1036" data-name="Path 1036" d="M77.249,110.094a2.268,2.268,0,0,1-1.609-.666L73.9,107.684a2.276,2.276,0,1,1,3.218-3.219l1.743,1.743a2.276,2.276,0,0,1-1.609,3.885" transform="translate(-59.329 -84.095)" fill="#fff"/>
        <path id="Path_1037" data-name="Path 1037" d="M236.434,5.03a2.268,2.268,0,0,1-1.61-.667l-.479-.479A2.276,2.276,0,0,1,237.565.667l.479.479a2.276,2.276,0,0,1-1.61,3.885" transform="translate(-189.321 0)" fill="#fff"/>
        <path id="Path_1038" data-name="Path 1038" d="M272.5,41.095a2.269,2.269,0,0,1-1.609-.666l-.479-.479a2.276,2.276,0,1,1,3.218-3.219l.479.479a2.276,2.276,0,0,1-1.609,3.885" transform="translate(-218.538 -29.219)" fill="#fff"/>
        <path id="Path_1039" data-name="Path 1039" d="M235.955,41.094a2.276,2.276,0,0,1-1.609-3.885l.479-.479a2.276,2.276,0,0,1,3.218,3.218l-.479.479a2.268,2.268,0,0,1-1.609.666" transform="translate(-189.321 -29.218)" fill="#fff"/>
        <path id="Path_1040" data-name="Path 1040" d="M272.018,5.031a2.276,2.276,0,0,1-1.609-3.885l.479-.479a2.276,2.276,0,0,1,3.218,3.218l-.479.479a2.269,2.269,0,0,1-1.609.666" transform="translate(-218.538 0)" fill="#fff"/>
        <path id="Path_1041" data-name="Path 1041" d="M516.682,73.32a2.276,2.276,0,0,1-1.609-3.885l1.743-1.743a2.276,2.276,0,1,1,3.218,3.219l-1.743,1.743a2.268,2.268,0,0,1-1.609.666" transform="translate(-416.758 -54.303)" fill="#fff"/>
        <path id="Path_1042" data-name="Path 1042" d="M566.226,23.777a2.276,2.276,0,0,1-1.609-3.885l1.743-1.743a2.276,2.276,0,1,1,3.218,3.219l-1.743,1.743a2.268,2.268,0,0,1-1.609.666" transform="translate(-456.897 -14.164)" fill="#fff"/>
        <path id="Path_1043" data-name="Path 1043" d="M567.969,73.32a2.268,2.268,0,0,1-1.609-.666l-1.743-1.743a2.276,2.276,0,0,1,3.218-3.219l1.743,1.743a2.276,2.276,0,0,1-1.609,3.885" transform="translate(-456.897 -54.302)" fill="#fff"/>
        <path id="Path_1044" data-name="Path 1044" d="M518.426,23.777a2.269,2.269,0,0,1-1.609-.666l-1.743-1.743a2.276,2.276,0,1,1,3.218-3.219l1.743,1.743a2.276,2.276,0,0,1-1.609,3.885" transform="translate(-416.759 -14.164)" fill="#fff"/>
        <path id="Path_1045" data-name="Path 1045" d="M677.61,139.3a2.268,2.268,0,0,1-1.61-.667l-.479-.479a2.276,2.276,0,1,1,3.219-3.218l.479.479a2.276,2.276,0,0,1-1.609,3.885" transform="translate(-546.75 -108.782)" fill="#fff"/>
        <path id="Path_1046" data-name="Path 1046" d="M713.674,175.365a2.269,2.269,0,0,1-1.609-.666l-.479-.479A2.276,2.276,0,1,1,714.8,171l.479.479a2.276,2.276,0,0,1-1.609,3.885" transform="translate(-575.967 -138)" fill="#fff"/>
        <path id="Path_1047" data-name="Path 1047" d="M677.132,175.365a2.276,2.276,0,0,1-1.609-3.885L676,171a2.276,2.276,0,1,1,3.219,3.218l-.479.479a2.268,2.268,0,0,1-1.609.667" transform="translate(-546.75 -138)" fill="#fff"/>
        <path id="Path_1048" data-name="Path 1048" d="M713.2,139.3a2.276,2.276,0,0,1-1.609-3.885l.479-.479a2.276,2.276,0,1,1,3.219,3.218l-.479.479a2.268,2.268,0,0,1-1.609.667" transform="translate(-575.967 -108.783)" fill="#fff"/>
        <path id="Path_1049" data-name="Path 1049" d="M706.535,611.254a2.276,2.276,0,0,1-1.609-3.885l1.743-1.743a2.276,2.276,0,0,1,3.218,3.218l-1.743,1.743a2.269,2.269,0,0,1-1.609.667" transform="translate(-570.572 -490.121)" fill="#fff"/>
        <path id="Path_1050" data-name="Path 1050" d="M656.991,660.8a2.276,2.276,0,0,1-1.609-3.885l1.743-1.743a2.276,2.276,0,1,1,3.218,3.219l-1.743,1.743a2.268,2.268,0,0,1-1.609.667" transform="translate(-530.432 -530.26)" fill="#fff"/>
        <path id="Path_1051" data-name="Path 1051" d="M658.734,611.254a2.269,2.269,0,0,1-1.609-.667l-1.743-1.743a2.276,2.276,0,0,1,3.218-3.219l1.743,1.743a2.276,2.276,0,0,1-1.609,3.885" transform="translate(-530.432 -490.121)" fill="#fff"/>
        <path id="Path_1052" data-name="Path 1052" d="M708.277,660.8a2.268,2.268,0,0,1-1.609-.667l-1.743-1.743a2.276,2.276,0,0,1,3.218-3.218l1.743,1.743a2.276,2.276,0,0,1-1.609,3.885" transform="translate(-570.571 -530.261)" fill="#fff"/>
        <path id="Path_1053" data-name="Path 1053" d="M534.043,750.813a2.269,2.269,0,0,1-1.609-.667l-.479-.479a2.276,2.276,0,0,1,3.218-3.219l.479.479a2.276,2.276,0,0,1-1.609,3.885" transform="translate(-430.435 -604.212)" fill="#fff"/>
        <path id="Path_1054" data-name="Path 1054" d="M497.98,714.75a2.269,2.269,0,0,1-1.609-.667l-.479-.479a2.276,2.276,0,1,1,3.218-3.219l.479.479a2.276,2.276,0,0,1-1.609,3.885" transform="translate(-401.218 -574.996)" fill="#fff"/>
        <path id="Path_1055" data-name="Path 1055" d="M533.565,714.75a2.276,2.276,0,0,1-1.609-3.885l.479-.479a2.276,2.276,0,0,1,3.219,3.219l-.479.479a2.268,2.268,0,0,1-1.609.666" transform="translate(-430.436 -574.995)" fill="#fff"/>
        <path id="Path_1056" data-name="Path 1056" d="M497.5,750.813a2.276,2.276,0,0,1-1.609-3.885l.479-.479a2.276,2.276,0,1,1,3.218,3.219l-.479.479a2.269,2.269,0,0,1-1.609.667" transform="translate(-401.218 -604.213)" fill="#fff"/>
        <path id="Path_1057" data-name="Path 1057" d="M342.084,620.845a2.276,2.276,0,0,1-1.609-3.885l1.743-1.743a2.276,2.276,0,1,1,3.218,3.219l-1.743,1.743a2.268,2.268,0,0,1-1.609.666" transform="translate(-275.303 -497.891)" fill="#fff"/>
        <path id="Path_1058" data-name="Path 1058" d="M292.54,670.389a2.276,2.276,0,0,1-1.609-3.885l1.743-1.743a2.276,2.276,0,1,1,3.218,3.219l-1.743,1.743a2.268,2.268,0,0,1-1.609.667" transform="translate(-235.164 -538.031)" fill="#fff"/>
        <path id="Path_1059" data-name="Path 1059" d="M294.283,620.845a2.268,2.268,0,0,1-1.609-.667l-1.743-1.743a2.276,2.276,0,1,1,3.218-3.218l1.743,1.743a2.276,2.276,0,0,1-1.609,3.885" transform="translate(-235.164 -497.892)" fill="#fff"/>
        <path id="Path_1060" data-name="Path 1060" d="M343.827,670.389a2.268,2.268,0,0,1-1.609-.667l-1.743-1.743a2.276,2.276,0,0,1,3.218-3.219l1.743,1.743a2.276,2.276,0,0,1-1.609,3.885" transform="translate(-275.303 -538.031)" fill="#fff"/>
        <path id="Path_1061" data-name="Path 1061" d="M140.821,693.268a2.269,2.269,0,0,1-1.609-.667l-.479-.479a2.276,2.276,0,1,1,3.218-3.219l.479.479a2.276,2.276,0,0,1-1.609,3.885" transform="translate(-111.858 -557.592)" fill="#fff"/>
        <path id="Path_1062" data-name="Path 1062" d="M104.757,657.205a2.269,2.269,0,0,1-1.609-.666l-.479-.479a2.276,2.276,0,1,1,3.218-3.219l.479.479a2.276,2.276,0,0,1-1.609,3.885" transform="translate(-82.64 -528.375)" fill="#fff"/>
        <path id="Path_1063" data-name="Path 1063" d="M140.342,657.2a2.276,2.276,0,0,1-1.609-3.885l.479-.479a2.276,2.276,0,1,1,3.218,3.219l-.479.479a2.269,2.269,0,0,1-1.609.667" transform="translate(-111.858 -528.374)" fill="#fff"/>
        <path id="Path_1064" data-name="Path 1064" d="M104.278,693.268a2.276,2.276,0,0,1-1.609-3.885l.479-.479a2.276,2.276,0,1,1,3.218,3.219l-.479.479a2.269,2.269,0,0,1-1.609.667" transform="translate(-82.64 -557.591)" fill="#fff"/>
      </g>
    </g>
  </g>
</svg>
