<svg xmlns="http://www.w3.org/2000/svg" width="128.465" height="189.266" viewBox="0 0 128.465 189.266">
  <path id="Path_844" data-name="Path 844" d="M243.791,76.66q7.933-10.84,7.929-21.944a24.784,24.784,0,0,0-8.456-18.9q-8.46-7.791-21.411-7.8-22.744,0-37.8,23.261L158.938,36.743Q171.1,18.506,185.769,9.253T223.566,0a61.1,61.1,0,0,1,40.576,14.673q17.456,14.67,17.446,40.043a54.1,54.1,0,0,1-7.4,27.232q-7.406,12.948-27.226,33.305L203.61,159.4H287.4v29.867H161.058V162.83l56.033-56.3q18.763-19.027,26.7-29.867" transform="translate(-158.938)" fill="#4e0003"/>
</svg>
