<svg xmlns="http://www.w3.org/2000/svg" width="126.997" height="186.543" viewBox="0 0 126.997 186.543">
  <path id="Path_845" data-name="Path 845" d="M169.377,125.967V98.3H277.141v24.24l-44.528,49.8q25.294.79,39.522,15.941a51.068,51.068,0,0,1,14.222,36.222q0,28.2-19.1,44.271t-49.133,16.066q-30.046,0-58.762-19.234l13.18-25.031q22.65,15.809,47.42,15.809,16.072,0,26.48-7.509t10.407-21.605q0-14.1-11.587-22.521-11.6-8.441-32.145-8.438a67.319,67.319,0,0,0-19.767,2.9V175.5l42.69-49.534Z" transform="translate(-159.359 -98.302)" fill="#707070"/>
</svg>
