<svg xmlns="http://www.w3.org/2000/svg" xmlns:xlink="http://www.w3.org/1999/xlink" width="162.561" height="111.792" viewBox="0 0 162.561 111.792">
  <defs>
    <clipPath id="clip-path">
      <rect id="Rectangle_844" data-name="Rectangle 844" width="162.561" height="111.791" fill="#4e0003"/>
    </clipPath>
  </defs>
  <g id="Group_954" data-name="Group 954" clip-path="url(#clip-path)">
    <path id="Path_906" data-name="Path 906" d="M7.159,46.285a2.6,2.6,0,0,1-2.6-2.6V22.522a2.6,2.6,0,0,1,5.2,0V43.687a2.6,2.6,0,0,1-2.6,2.6" transform="translate(14.993 65.505)" fill="#4e0003"/>
    <path id="Path_907" data-name="Path 907" d="M15.208,46.285a2.6,2.6,0,0,1-2.6-2.6V22.522a2.6,2.6,0,0,1,5.2,0V43.687a2.6,2.6,0,0,1-2.6,2.6" transform="translate(41.458 65.505)" fill="#4e0003"/>
    <path id="Path_908" data-name="Path 908" d="M58.571,59.947H4.929a2.6,2.6,0,0,1-2.6-2.6l.017-28.1c0-.086,0-.18.013-.27A13.014,13.014,0,0,1,13.114,17.548L23.478,15.8a2.6,2.6,0,1,1,.862,5.124L13.976,22.672A7.811,7.811,0,0,0,7.54,29.4L7.527,54.75H55.972L55.942,29.4A7.816,7.816,0,0,0,49.5,22.672l-10.36-1.745A2.6,2.6,0,0,1,40,15.8l10.364,1.745A13.028,13.028,0,0,1,61.122,28.98q.013.135.013.27l.034,28.1a2.6,2.6,0,0,1-2.6,2.6" transform="translate(7.661 51.843)" fill="#4e0003"/>
    <path id="Path_909" data-name="Path 909" d="M25.737,46.285a2.6,2.6,0,0,1-2.6-2.6V22.522a2.6,2.6,0,1,1,5.2,0V43.687a2.6,2.6,0,0,1-2.6,2.6" transform="translate(76.077 65.505)" fill="#4e0003"/>
    <path id="Path_910" data-name="Path 910" d="M33.786,46.285a2.6,2.6,0,0,1-2.6-2.6V22.522a2.6,2.6,0,1,1,5.2,0V43.687a2.6,2.6,0,0,1-2.6,2.6" transform="translate(102.542 65.505)" fill="#4e0003"/>
    <path id="Path_911" data-name="Path 911" d="M77.149,59.947H23.5a2.6,2.6,0,0,1-2.594-2.6l.017-28.1q0-.135.013-.27A13.028,13.028,0,0,1,31.692,17.548L42.056,15.8a2.6,2.6,0,1,1,.862,5.124L32.554,22.672A7.816,7.816,0,0,0,26.118,29.4l-.013,25.35H74.55L74.52,29.4a7.816,7.816,0,0,0-6.441-6.728L57.72,20.927a2.6,2.6,0,0,1,.862-5.124l10.364,1.745A13.018,13.018,0,0,1,79.7,28.98q.013.135.013.27l.034,28.1a2.6,2.6,0,0,1-2.6,2.6" transform="translate(68.745 51.843)" fill="#4e0003"/>
    <path id="Path_912" data-name="Path 912" d="M16.938,29.612a2.627,2.627,0,0,1-1.955-.883L7.4,20.079a2.6,2.6,0,1,1,3.906-3.422L17,23.141l6.123-6.548a2.6,2.6,0,1,1,3.795,3.55l-8.079,8.645a2.6,2.6,0,0,1-1.9.823" transform="translate(22.216 51.842)" fill="#4e0003"/>
    <path id="Path_913" data-name="Path 913" d="M35.772,28.6a2.585,2.585,0,0,1-1.814-.738l-7.838-7.633A2.6,2.6,0,0,1,29.747,16.5l6.02,5.87,6.016-5.866a2.6,2.6,0,0,1,3.628,3.718l-7.826,7.637a2.585,2.585,0,0,1-1.814.738" transform="translate(83.301 51.842)" fill="#4e0003"/>
    <path id="Path_914" data-name="Path 914" d="M159.967,30.056H2.6a2.6,2.6,0,1,1,0-5.2H159.967a2.6,2.6,0,0,1,0,5.2" transform="translate(0 81.735)" fill="#4e0003"/>
    <path id="Path_915" data-name="Path 915" d="M20.657,37.764A14.956,14.956,0,1,1,35.614,22.807,14.975,14.975,0,0,1,20.657,37.764m0-24.716a9.759,9.759,0,1,0,9.759,9.759,9.77,9.77,0,0,0-9.759-9.759" transform="translate(18.745 25.813)" fill="#4e0003"/>
    <path id="Path_916" data-name="Path 916" d="M39.235,37.764A14.956,14.956,0,1,1,54.192,22.807,14.975,14.975,0,0,1,39.235,37.764m0-24.716a9.759,9.759,0,1,0,9.759,9.759,9.77,9.77,0,0,0-9.759-9.759" transform="translate(79.828 25.813)" fill="#4e0003"/>
    <path id="Path_917" data-name="Path 917" d="M19.064,32.287a2.557,2.557,0,0,1-1.141-.266,2.591,2.591,0,0,1-1.458-2.333V23.046a6.778,6.778,0,0,1-4.382-6.329V9.466A6.821,6.821,0,0,1,18.9,2.657h27.97a6.818,6.818,0,0,1,6.809,6.809v7.251a6.814,6.814,0,0,1-6.809,6.8H31.22L20.659,31.738a2.579,2.579,0,0,1-1.6.549M18.9,7.854A1.617,1.617,0,0,0,17.28,9.466v7.251A1.617,1.617,0,0,0,18.9,18.329a2.745,2.745,0,0,1,2.766,2.6v3.448l7.071-5.5a2.587,2.587,0,0,1,1.6-.549H46.867a1.617,1.617,0,0,0,1.617-1.612V9.466a1.617,1.617,0,0,0-1.617-1.612Z" transform="translate(39.728 8.735)" fill="#4e0003"/>
    <path id="Path_918" data-name="Path 918" d="M19.131,6.8A2.105,2.105,0,1,1,17.025,4.7,2.106,2.106,0,0,1,19.131,6.8" transform="translate(49.056 15.446)" fill="#4e0003"/>
    <path id="Path_919" data-name="Path 919" d="M20.654,6.8A2.105,2.105,0,1,1,18.548,4.7,2.106,2.106,0,0,1,20.654,6.8" transform="translate(54.064 15.446)" fill="#4e0003"/>
    <path id="Path_920" data-name="Path 920" d="M22.18,6.8A2.108,2.108,0,1,1,20.07,4.7,2.11,2.11,0,0,1,22.18,6.8" transform="translate(59.068 15.446)" fill="#4e0003"/>
    <path id="Path_921" data-name="Path 921" d="M57.529,29.634a2.615,2.615,0,0,1-1.6-.549L45.377,20.87H29.726a6.815,6.815,0,0,1-6.809-6.809V6.814A6.819,6.819,0,0,1,29.726,0H57.7A6.822,6.822,0,0,1,64.51,6.814V14.06a6.816,6.816,0,0,1-4.382,6.359v6.616a2.6,2.6,0,0,1-1.454,2.333,2.634,2.634,0,0,1-1.145.266M29.726,5.2a1.614,1.614,0,0,0-1.612,1.617V14.06a1.613,1.613,0,0,0,1.612,1.612H46.265a2.587,2.587,0,0,1,1.6.549l7.071,5.5V18.271a2.6,2.6,0,0,1,2.6-2.6,1.661,1.661,0,0,0,1.784-1.612V6.814A1.618,1.618,0,0,0,57.7,5.2Z" transform="translate(75.35 -0.001)" fill="#4e0003"/>
    <path id="Path_922" data-name="Path 922" d="M28.8,4.146a2.1,2.1,0,1,0,2.1-2.105,2.1,2.1,0,0,0-2.1,2.105" transform="translate(94.69 6.71)" fill="#4e0003"/>
    <path id="Path_923" data-name="Path 923" d="M27.276,4.146a2.105,2.105,0,1,0,2.105-2.105,2.106,2.106,0,0,0-2.105,2.105" transform="translate(89.682 6.71)" fill="#4e0003"/>
    <path id="Path_924" data-name="Path 924" d="M25.753,4.146a2.105,2.105,0,1,0,2.105-2.105,2.106,2.106,0,0,0-2.105,2.105" transform="translate(84.675 6.71)" fill="#4e0003"/>
  </g>
</svg>
