<svg xmlns="http://www.w3.org/2000/svg" xmlns:xlink="http://www.w3.org/1999/xlink" width="105.09" height="125.51" viewBox="0 0 105.09 125.51">
  <defs>
    <clipPath id="clip-path">
      <rect id="Rectangle_843" data-name="Rectangle 843" width="105.09" height="125.51" fill="#707070"/>
    </clipPath>
  </defs>
  <g id="Group_955" data-name="Group 955" transform="translate(0 0)">
    <g id="Group_944" data-name="Group 944" transform="translate(0 0)" clip-path="url(#clip-path)">
      <path id="Path_886" data-name="Path 886" d="M18.831,23.178a9.431,9.431,0,1,1,9.428-9.431,9.441,9.441,0,0,1-9.428,9.431m0-14.571a5.14,5.14,0,1,0,5.14,5.14,5.147,5.147,0,0,0-5.14-5.14" transform="translate(23.885 10.965)" fill="#707070"/>
      <path id="Path_887" data-name="Path 887" d="M40.381,30.743A2.144,2.144,0,0,1,38.235,28.6V20.179a5.748,5.748,0,0,0-5.742-5.742H17.09a5.749,5.749,0,0,0-5.746,5.742V28.6a2.144,2.144,0,1,1-4.287,0V20.179A10.043,10.043,0,0,1,17.09,10.146h15.4A10.045,10.045,0,0,1,42.526,20.179V28.6a2.144,2.144,0,0,1-2.145,2.145" transform="translate(17.926 25.774)" fill="#707070"/>
      <path id="Path_888" data-name="Path 888" d="M11.708,21.207a2.144,2.144,0,0,1-2.145-2.145V16.045a2.145,2.145,0,0,1,4.291,0v3.016a2.144,2.144,0,0,1-2.145,2.145" transform="translate(24.292 35.31)" fill="#707070"/>
      <path id="Path_889" data-name="Path 889" d="M15.5,21.207a2.144,2.144,0,0,1-2.145-2.145V16.045a2.145,2.145,0,0,1,4.291,0v3.016A2.144,2.144,0,0,1,15.5,21.207" transform="translate(33.929 35.31)" fill="#707070"/>
      <path id="Path_890" data-name="Path 890" d="M62.412,21.316H5.578a2.145,2.145,0,1,1,0-4.291H62.412a2.145,2.145,0,0,1,0,4.291" transform="translate(8.72 43.248)" fill="#707070"/>
      <path id="Path_891" data-name="Path 891" d="M62.412,24.5H5.578a2.145,2.145,0,1,1,0-4.291H62.412a2.145,2.145,0,0,1,0,4.291" transform="translate(8.72 51.328)" fill="#707070"/>
      <path id="Path_892" data-name="Path 892" d="M68.707,27.678H5.578a2.145,2.145,0,0,1,0-4.291H68.707a2.145,2.145,0,0,1,0,4.291" transform="translate(8.72 59.409)" fill="#707070"/>
      <path id="Path_893" data-name="Path 893" d="M56.4,30.858H5.577a2.145,2.145,0,1,1,0-4.291H56.4a2.145,2.145,0,1,1,0,4.291" transform="translate(8.718 67.486)" fill="#707070"/>
      <path id="Path_894" data-name="Path 894" d="M55.268,34.039H5.578a2.145,2.145,0,1,1,0-4.291h49.69a2.145,2.145,0,0,1,0,4.291" transform="translate(8.72 75.567)" fill="#707070"/>
      <path id="Path_895" data-name="Path 895" d="M76.075,118.422H2.145A2.144,2.144,0,0,1,0,116.276V4.392A2.144,2.144,0,0,1,2.145,2.247H83.286a2.144,2.144,0,0,1,2.145,2.145V78.343a2.144,2.144,0,0,1-2.145,2.145,17.506,17.506,0,0,0-6.422,33.795,2.144,2.144,0,0,1-.789,4.138M4.291,114.131H68.609A21.81,21.81,0,0,1,81.145,76.3V6.534H4.291Z" transform="translate(0 5.709)" fill="#707070"/>
      <path id="Path_896" data-name="Path 896" d="M39.171,66.739a21.8,21.8,0,1,1,21.8-21.8,21.826,21.826,0,0,1-21.8,21.8m0-39.314A17.513,17.513,0,1,0,56.684,44.939,17.532,17.532,0,0,0,39.171,27.426" transform="translate(44.115 58.769)" fill="#707070"/>
      <path id="Path_897" data-name="Path 897" d="M29.991,45.491a2.147,2.147,0,0,1-1.731-.882L20.617,34.155a2.146,2.146,0,0,1,3.466-2.531l5.951,8.146,9.18-11.952a2.145,2.145,0,0,1,3.4,2.613L31.69,44.652a2.143,2.143,0,0,1-1.7.839" transform="translate(51.323 68.536)" fill="#707070"/>
      <path id="Path_898" data-name="Path 898" d="M85.815,88.363a2.131,2.131,0,0,1-.981-.237,17.331,17.331,0,0,0-7.973-1.933,2.144,2.144,0,0,1-2.145-2.145V12.242H4.674A2.144,2.144,0,0,1,2.529,10.1V2.145A2.144,2.144,0,0,1,4.674,0H85.815a2.144,2.144,0,0,1,2.145,2.145V86.218a2.146,2.146,0,0,1-2.145,2.145m-6.808-6.355A21.4,21.4,0,0,1,83.67,83V4.291H6.816V7.951H76.862A2.144,2.144,0,0,1,79.008,10.1Z" transform="translate(6.424 0.001)" fill="#707070"/>
    </g>
  </g>
</svg>
